<?xml version="1.0" encoding="UTF-8"?>
<svg version="1.1" xmlns="http://www.w3.org/2000/svg" width="500" height="500">
<path d="M0 0 C1.15466766 -0.00201416 2.30933533 -0.00402832 3.49899292 -0.00610352 C5.41350754 0.00078491 5.41350754 0.00078491 7.36669922 0.0078125 C8.35386114 0.00964035 8.35386114 0.00964035 9.36096573 0.01150513 C26.28342475 0.04768538 43.19423241 0.55051786 60.10778809 1.05993652 C64.25259234 1.18380137 68.39754259 1.30258107 72.54248047 1.421875 C80.58559446 1.65406773 88.62853865 1.89158426 96.67138672 2.1328125 C95.35184898 6.1935907 93.89108657 9.89269285 91.90576172 13.67578125 C91.35283447 14.73522949 90.79990723 15.79467773 90.23022461 16.88623047 C89.63330811 18.01947754 89.0363916 19.15272461 88.42138672 20.3203125 C87.79127678 21.5246559 87.16164701 22.72925062 86.5324707 23.93408203 C85.22696426 26.43311128 83.91941111 28.9310529 82.61035156 31.42822266 C79.63295452 37.111772 76.68464068 42.81039979 73.73388672 48.5078125 C72.56855059 50.75522309 71.40318573 53.00261878 70.23779297 55.25 C66.54463725 62.37535426 62.857575 69.50385226 59.17138672 76.6328125 C52.59366441 89.35389924 46.00406612 102.06879848 39.40966797 114.78125 C37.65262163 118.16899328 35.8962715 121.55709661 34.14013672 124.9453125 C33.5485376 126.08661621 32.95693848 127.22791992 32.34741211 128.40380859 C31.25794308 130.50563776 30.16857212 132.60751776 29.0793457 134.70947266 C22.9550169 146.52333439 16.81059843 158.32663613 10.67138672 170.1328125 C48.29138672 170.1328125 85.91138672 170.1328125 124.67138672 170.1328125 C122.97587846 174.37158315 121.09867656 177.68614376 118.54638672 181.3828125 C113.90478556 188.22398163 109.42620542 195.1608178 104.98388672 202.1328125 C97.84829645 213.31947312 90.61831703 224.44163169 83.35839844 235.54785156 C79.54716658 241.38769569 75.76566988 247.24681323 71.98193359 253.10449219 C69.71361873 256.61514046 67.44231374 260.12385363 65.17138672 263.6328125 C64.25470656 265.04947044 63.33803988 266.46613709 62.42138672 267.8828125 C-20.07861328 395.3828125 -20.07861328 395.3828125 -21.45239258 397.50585938 C-22.37320917 398.92898411 -23.29394426 400.35216157 -24.21459961 401.77539062 C-26.44212238 405.21867621 -28.67083727 408.66117378 -30.90283203 412.1015625 C-35.72747958 419.54239857 -40.52752998 426.99801251 -45.29321289 434.47680664 C-46.68580358 436.65474523 -48.08501049 438.82846823 -49.4909668 440.99780273 C-52.48669965 445.62485057 -55.4333766 450.23089224 -58.08251953 455.06640625 C-60.23132212 458.87829656 -62.1341024 462.10187597 -65.32861328 465.1328125 C-70.23625808 466.31848299 -74.39857682 466.09182536 -79.32861328 465.1328125 C-78.09657262 458.91099565 -76.38822706 453.06082977 -74.18798828 447.1171875 C-73.87377426 446.25385803 -73.55956024 445.39052856 -73.23582458 444.5010376 C-72.18845371 441.62643158 -71.13340749 438.75470203 -70.07861328 435.8828125 C-69.32315619 433.81273916 -68.56837284 431.74241984 -67.81420898 429.671875 C-66.60547827 426.35346303 -65.39634157 423.0352051 -64.18525696 419.71765137 C-59.95456318 408.12584915 -55.77371094 396.51618535 -51.59443855 384.90577507 C-42.96218998 360.92468393 -34.2856816 336.95999803 -25.55200195 313.015625 C-18.40869083 293.41193501 -11.37838339 273.77145781 -4.32861328 254.1328125 C-40.29861328 254.1328125 -76.26861328 254.1328125 -113.32861328 254.1328125 C-109.9586562 244.02294126 -109.9586562 244.02294126 -108.00048828 239.58984375 C-107.54303223 238.54570312 -107.08557617 237.5015625 -106.61425781 236.42578125 C-105.85411377 234.70294922 -105.85411377 234.70294922 -105.07861328 232.9453125 C-103.90094261 230.25529518 -102.72767915 227.56336685 -101.55517578 224.87109375 C-101.23108734 224.12735504 -100.9069989 223.38361633 -100.5730896 222.61734009 C-95.80262981 211.64996712 -91.13503237 200.63839575 -86.45361328 189.6328125 C-85.45785985 187.29271831 -84.46209147 184.95263049 -83.46630859 182.61254883 C-81.43209655 177.83169513 -79.39831837 173.05065711 -77.36474609 168.26953125 C-72.99884927 158.00578275 -68.62718772 147.74449031 -64.25576782 137.48309326 C-62.82308206 134.11982781 -61.3906276 130.75646394 -59.95825195 127.39306641 C-55.63733667 117.2471363 -51.31572447 107.10150557 -46.99078369 96.95729065 C-45.06119448 92.43132455 -43.13199751 87.90519135 -41.20294189 83.3789978 C-40.25069138 81.1447627 -39.2983407 78.91057028 -38.34588623 76.67642212 C-33.15009382 64.48724247 -27.96771986 52.29253948 -22.81667519 40.0843811 C-22.03587472 38.23390472 -21.25477819 36.38355326 -20.47367859 34.53320312 C-18.00206687 28.67763236 -15.53307034 22.82098384 -13.06860352 16.96240234 C-12.18921706 14.87724092 -11.30974597 12.79211518 -10.43017578 10.70703125 C-10.02719772 9.74634232 -9.62421967 8.78565338 -9.20903015 7.79585266 C-8.8419545 6.92695908 -8.47487885 6.05806549 -8.09667969 5.1628418 C-7.77744537 4.40416306 -7.45821106 3.64548431 -7.12930298 2.86381531 C-5.49777543 -0.6633673 -3.71167467 0.00414287 0 0 Z " fill="#FF3131" transform="translate(175.32861328125,17.8671875)"/>
<path d="M0 0 C3.14423473 -0.29403407 6.09136116 -0.39077079 9.23794556 -0.36076355 C10.20745632 -0.36332682 11.17696707 -0.3658901 12.17585695 -0.36853105 C15.44504053 -0.37349728 18.71376868 -0.35692919 21.98291016 -0.34057617 C24.31815073 -0.33973051 26.6533921 -0.34020384 28.9886322 -0.34190369 C35.3458183 -0.34276745 41.70283596 -0.32508001 48.05998278 -0.30418181 C54.02523086 -0.28737172 59.99047216 -0.28431558 65.95574073 -0.2812262 C77.7732601 -0.27465587 89.59071745 -0.25467899 101.40820312 -0.22631836 C112.88964527 -0.1987928 124.37107059 -0.17755188 135.85253906 -0.16479492 C136.55993157 -0.16400675 137.26732407 -0.16321858 137.99615271 -0.16240653 C141.54483623 -0.15849149 145.09351986 -0.15470035 148.64220357 -0.15097082 C178.09484908 -0.11985682 207.54740594 -0.06454402 237 0 C237 30.69 237 61.38 237 93 C139.32 93 41.64 93 -59 93 C-57.65640262 89.64100654 -56.68723525 87.28020572 -54.78515625 84.390625 C-54.35203125 83.72740234 -53.91890625 83.06417969 -53.47265625 82.38085938 C-53.00730469 81.67767578 -52.54195312 80.97449219 -52.0625 80.25 C-51.06368607 78.72403427 -50.06499145 77.19799043 -49.06640625 75.671875 C-48.55609863 74.89521484 -48.04579102 74.11855469 -47.52001953 73.31835938 C-45.16292132 69.7232735 -42.83208039 66.11134265 -40.5 62.5 C-39.58347526 61.08324151 -38.66680818 59.66657509 -37.75 58.25 C-37.29625 57.54875 -36.8425 56.8475 -36.375 56.125 C-31.33333333 48.33333333 -26.29166667 40.54166667 -21.25 32.75 C-20.7955249 32.04762207 -20.3410498 31.34524414 -19.87280273 30.62158203 C-18.96348732 29.2162911 -18.05414523 27.81101743 -17.14477539 26.40576172 C-14.74040632 22.69019335 -12.33661041 18.9742557 -9.93359375 15.2578125 C-9.43214844 14.48244141 -8.93070313 13.70707031 -8.4140625 12.90820312 C-7.45165248 11.42003208 -6.48940493 9.93175596 -5.52734375 8.44335938 C-5.09421875 7.77369141 -4.66109375 7.10402344 -4.21484375 6.4140625 C-3.83448975 5.8257666 -3.45413574 5.2374707 -3.06225586 4.63134766 C-2.05237388 3.0804326 -1.02659993 1.5398999 0 0 Z " fill="#FFFFFF" transform="translate(201,390)"/>
<path d="M0 0 C2.40668504 -0.03465687 4.81487978 -0.00313465 7.22035217 0.08074951 C8.53810638 0.07899719 9.8558606 0.07724487 11.21354675 0.07543945 C14.81211148 0.07200756 18.40583811 0.14233467 22.00328135 0.22632694 C25.76797712 0.30155223 29.53279488 0.30840735 33.29812622 0.32263184 C40.42110981 0.35987123 47.54187263 0.45825476 54.66387993 0.57882571 C64.29253298 0.73827948 73.92179719 0.80285667 83.55143833 0.87285233 C98.71365319 0.98555597 113.87118262 1.22463527 129.03309631 1.4430542 C129.03309631 32.4630542 129.03309631 63.4830542 129.03309631 95.4430542 C68.64309631 95.4430542 8.25309631 95.4430542 -53.96690369 95.4430542 C-53.07672669 91.8823462 -52.00907312 89.28282903 -50.37705994 86.03289795 C-49.84564392 84.97127441 -49.31422791 83.90965088 -48.76670837 82.81585693 C-47.90674255 81.11538208 -47.90674255 81.11538208 -47.02940369 79.3805542 C-46.4367572 78.20243164 -45.84411072 77.02430908 -45.23350525 75.81048584 C-41.5857282 68.57233781 -37.87191535 61.37193108 -34.0655365 54.21600342 C-31.27070629 48.95207301 -28.53132352 43.66161798 -25.81455994 38.3571167 C-25.44348114 37.63333328 -25.07240234 36.90954987 -24.69007874 36.16383362 C-23.18705023 33.23171092 -21.68406543 30.29959143 -20.18797302 27.36392212 C-19.1341913 25.29631292 -18.07621588 23.23089139 -17.01768494 21.16571045 C-16.71371292 20.56614532 -16.40974091 19.9665802 -16.09655762 19.34884644 C-15.4768915 18.14307485 -14.83891726 16.94652991 -14.18266773 15.76027203 C-12.88848459 13.36528794 -12.88848459 13.36528794 -11.68476295 10.46652508 C-8.82213279 4.49429629 -6.90859568 0.76669751 0 0 Z " fill="#FFFFFF" transform="translate(308.96690368652344,17.55694580078125)"/>
<path d="M0 0 C2.99049909 -0.16555454 5.94466521 -0.1633786 8.93949318 -0.11367989 C10.08109901 -0.11441002 11.22270485 -0.11514015 12.3989048 -0.11589241 C16.18154956 -0.11240217 19.96297108 -0.07347014 23.74540138 -0.03433418 C26.36427576 -0.02501125 28.98315885 -0.01789269 31.60204506 -0.01289558 C37.7964095 0.00264993 43.99033312 0.04368725 50.18450338 0.09385186 C57.92802539 0.15520389 65.67161889 0.18258672 73.41532326 0.20980644 C87.23011985 0.2585168 101.04395443 0.35867308 114.85868263 0.45394707 C114.85868263 31.47394707 114.85868263 62.49394707 114.85868263 94.45394707 C56.44868263 94.45394707 -1.96131737 94.45394707 -62.14131737 94.45394707 C-54.26942646 80.95927694 -54.26942646 80.95927694 -51.12569237 76.19222832 C-50.43749413 75.14478447 -49.74929588 74.09734062 -49.04024315 73.01815605 C-48.33109764 71.94509209 -47.62195213 70.87202812 -46.89131737 69.76644707 C-46.13688046 68.61963497 -45.38281626 67.4725776 -44.62911034 66.32528496 C-43.14348834 64.0638861 -41.6569123 61.8031281 -40.16963768 59.54281425 C-37.51739031 55.50378756 -34.88700888 51.45099714 -32.26631737 47.39144707 C-31.83609276 46.72540459 -31.40586815 46.05936211 -30.96260643 45.37313652 C-30.11475462 44.06019312 -29.26709512 42.74712552 -28.41963768 41.43392754 C-26.62434319 38.65320975 -24.8259861 35.87447801 -23.02754784 33.09579277 C-22.11232132 31.68168882 -21.19727855 30.26746592 -20.28243065 28.85311699 C-17.89424435 25.1610753 -15.50375265 21.47055131 -13.11006737 17.78207207 C-12.61313377 17.01572441 -12.11620018 16.24937675 -11.60420799 15.45980644 C-10.65567799 13.99711999 -9.70649895 12.53485413 -8.75655174 11.07308769 C-8.3266494 10.40986504 -7.89674706 9.74664238 -7.45381737 9.06332207 C-7.07870018 8.4854998 -6.70358299 7.90767754 -6.31709862 7.3123455 C-5.01672973 5.41674643 -5.01672973 5.41674643 -4.2603817 2.87327385 C-2.14131737 0.45394707 -2.14131737 0.45394707 0 0 Z " fill="#FFFFFF" transform="translate(323.1413173675537,203.54605293273926)"/>
</svg>
